<svg width="35" height="35" viewBox="0 0 35 35" fill="none" xmlns="http://www.w3.org/2000/svg">
<path d="M17.4066 2.07712C13.3263 2.03566 9.39655 3.61593 6.48089 6.47062C3.56524 9.32531 1.9023 13.2208 1.85754 17.3011C1.87327 20.5256 2.91056 23.6622 4.82044 26.2604C6.73031 28.8585 9.4145 30.7845 12.4875 31.7617C13.2649 31.9031 13.5476 31.4366 13.5476 31.0267C13.5476 30.6167 13.5476 29.712 13.5476 28.4399C9.22215 29.3587 8.30334 26.4043 8.30334 26.4043C8.01539 25.4769 7.40323 24.6841 6.57881 24.1709C5.16525 23.238 6.69189 23.2521 6.69189 23.2521C7.18049 23.3174 7.64795 23.4925 8.05923 23.7643C8.47051 24.036 8.81493 24.3973 9.06666 24.8212C9.50533 25.5818 10.2251 26.1399 11.0711 26.3751C11.9171 26.6104 12.8216 26.5042 13.59 26.0792C13.669 25.3051 14.0196 24.584 14.5795 24.0437C11.1304 23.6621 7.51175 22.3616 7.51175 16.5236C7.48091 15.0008 8.04359 13.5256 9.08079 12.4102C8.60842 11.1027 8.6642 9.66268 9.23628 8.3957C9.23628 8.3957 10.5509 7.98577 13.4769 9.9506C16.024 9.27187 18.7044 9.27187 21.2515 9.9506C24.2199 7.98577 25.4921 8.3957 25.4921 8.3957C26.0642 9.66268 26.12 11.1027 25.6476 12.4102C26.7089 13.5052 27.3021 14.9704 27.3015 16.4953C27.3015 22.3474 23.6545 23.6338 20.2337 24.0154C20.6083 24.3791 20.8976 24.8212 21.0809 25.3101C21.2642 25.7989 21.337 26.3223 21.2939 26.8425V31.0125C21.2939 31.0125 21.5766 31.9031 22.354 31.7476C25.4183 30.7643 28.0934 28.8379 29.9974 26.2434C31.9013 23.6489 32.9367 20.5191 32.9557 17.3011C32.9109 13.2208 31.248 9.32531 28.3323 6.47062C25.4167 3.61593 21.4869 2.03566 17.4066 2.07712Z" fill="white"/>
</svg>
