<svg width="15" height="16" viewBox="0 0 15 16" fill="none" xmlns="http://www.w3.org/2000/svg">
<path fill-rule="evenodd" clip-rule="evenodd" d="M3.807 10.4202C2.84068 9.17385 2.38526 7.60607 2.5334 6.03578C2.68154 4.46548 3.4221 3.01062 4.60443 1.96717C5.78677 0.923724 7.32205 0.370076 8.89794 0.41886C10.4738 0.467644 11.972 1.1152 13.0875 2.22978C14.2041 3.34513 14.8535 4.84443 14.9034 6.42215C14.9534 7.99987 14.4001 9.53727 13.3563 10.721C12.3125 11.9048 10.8568 12.6459 9.28576 12.7932C7.71477 12.9406 6.14674 12.4831 4.9012 11.514L4.86787 11.5489L1.58063 14.8382C1.50863 14.9103 1.42316 14.9674 1.32908 15.0064C1.23501 15.0454 1.13419 15.0654 1.03237 15.0654C0.930546 15.0654 0.829721 15.0454 0.73565 15.0064C0.641579 14.9674 0.556104 14.9103 0.484105 14.8382C0.412106 14.7662 0.354995 14.6807 0.316029 14.5866C0.277064 14.4925 0.257007 14.3916 0.257007 14.2898C0.257007 14.1879 0.277064 14.087 0.316029 13.9929C0.354995 13.8988 0.412106 13.8133 0.484105 13.7413L3.77213 10.4527C3.78345 10.4415 3.79508 10.4307 3.807 10.4202V10.4202ZM5.41575 3.32674C4.97822 3.75737 4.63026 4.27039 4.39191 4.83623C4.15357 5.40207 4.02958 6.00951 4.02708 6.62353C4.02458 7.23754 4.14363 7.84598 4.37735 8.41374C4.61108 8.9815 4.95486 9.49734 5.38887 9.93152C5.82287 10.3657 6.33851 10.7096 6.90605 10.9434C7.47358 11.1773 8.08177 11.2964 8.69554 11.2939C9.30931 11.2914 9.91652 11.1673 10.4821 10.9289C11.0477 10.6904 11.5606 10.3423 11.991 9.90463C12.8513 9.02992 13.3311 7.85059 13.3261 6.62353C13.3211 5.39646 12.8317 4.22108 11.9644 3.35341C11.097 2.48574 9.92212 1.99608 8.69554 1.99108C7.46897 1.98609 6.29011 2.46616 5.41575 3.32674Z" fill="#9EA1B4"/>
</svg>
